<svg id="visual" viewBox="0 0 900 150" width="900" height="150" xmlns="http://www.w3.org/2000/svg" xmlns:xlink="http://www.w3.org/1999/xlink" version="1.1"><path d="M0 90L129 90L129 62L257 62L257 33L386 33L386 40L514 40L514 97L643 97L643 57L771 57L771 69L900 69L900 30L900 0L900 0L771 0L771 0L643 0L643 0L514 0L514 0L386 0L386 0L257 0L257 0L129 0L129 0L0 0Z" fill="#da0037"></path><path d="M0 114L129 114L129 91L257 91L257 64L386 64L386 55L514 55L514 121L643 121L643 108L771 108L771 104L900 104L900 42L900 28L900 67L771 67L771 55L643 55L643 95L514 95L514 38L386 38L386 31L257 31L257 60L129 60L129 88L0 88Z" fill="#95202c"></path><path d="M0 121L129 121L129 135L257 135L257 82L386 82L386 88L514 88L514 127L643 127L643 117L771 117L771 117L900 117L900 76L900 40L900 102L771 102L771 106L643 106L643 119L514 119L514 53L386 53L386 62L257 62L257 89L129 89L129 112L0 112Z" fill="#542122"></path><path d="M0 151L129 151L129 151L257 151L257 151L386 151L386 151L514 151L514 151L643 151L643 151L771 151L771 151L900 151L900 151L900 74L900 115L771 115L771 115L643 115L643 125L514 125L514 86L386 86L386 80L257 80L257 133L129 133L129 119L0 119Z" fill="#171717"></path></svg>