<svg id="visual" viewBox="0 0 900 150" width="900" height="150" xmlns="http://www.w3.org/2000/svg" xmlns:xlink="http://www.w3.org/1999/xlink" version="1.1"><path d="M0 51L129 51L129 12L257 12L257 57L386 57L386 73L514 73L514 42L643 42L643 18L771 18L771 21L900 21L900 66L900 0L900 0L771 0L771 0L643 0L643 0L514 0L514 0L386 0L386 0L257 0L257 0L129 0L129 0L0 0Z" fill="#171717"></path><path d="M0 76L129 76L129 54L257 54L257 103L386 103L386 132L514 132L514 84L643 84L643 45L771 45L771 31L900 31L900 118L900 64L900 19L771 19L771 16L643 16L643 40L514 40L514 71L386 71L386 55L257 55L257 10L129 10L129 49L0 49Z" fill="#542122"></path><path d="M0 124L129 124L129 109L257 109L257 142L386 142L386 142L514 142L514 118L643 118L643 127L771 127L771 118L900 118L900 129L900 116L900 29L771 29L771 43L643 43L643 82L514 82L514 130L386 130L386 101L257 101L257 52L129 52L129 74L0 74Z" fill="#95202c"></path><path d="M0 151L129 151L129 151L257 151L257 151L386 151L386 151L514 151L514 151L643 151L643 151L771 151L771 151L900 151L900 151L900 127L900 116L771 116L771 125L643 125L643 116L514 116L514 140L386 140L386 140L257 140L257 107L129 107L129 122L0 122Z" fill="#da0037"></path></svg>